<svg xmlns="http://www.w3.org/2000/svg" width="780" height="230" viewBox="0 0 780 230" role="img" aria-labelledby="title desc">
  <title id="title">不要买西班牙冠军聊天截图</title>
  <desc id="desc">@所有人 不要买西班牙冠军</desc>
  <defs>
    <linearGradient id="avatarBg" x1="0" y1="0" x2="1" y2="1">
      <stop offset="0" stop-color="#f4d87a"/>
      <stop offset="0.52" stop-color="#f1a58d"/>
      <stop offset="1" stop-color="#9b3b39"/>
    </linearGradient>
    <filter id="shadow" x="-20%" y="-20%" width="140%" height="140%">
      <feDropShadow dx="0" dy="18" stdDeviation="18" flood-color="#122033" flood-opacity="0.18"/>
    </filter>
  </defs>

  <rect width="780" height="230" rx="18" fill="#f3f4f6"/>

  <g transform="translate(44 40)">
    <rect width="82" height="82" rx="18" fill="url(#avatarBg)"/>
    <circle cx="31" cy="36" r="6" fill="#2c241d"/>
    <circle cx="58" cy="38" r="6" fill="#2c241d"/>
    <path d="M39 54 Q45 60 52 54" fill="none" stroke="#2c241d" stroke-width="4" stroke-linecap="round"/>
    <path d="M21 21 L11 5 L37 15 Z" fill="#f6dc84"/>
    <path d="M63 20 L81 8 L75 35 Z" fill="#f6dc84"/>
  </g>

  <text x="164" y="68" fill="#8d95a3" font-family="Inter, 'Noto Sans SC', 'Microsoft YaHei', sans-serif" font-size="30">ZZC</text>

  <g filter="url(#shadow)">
    <path d="M174 94 H690 Q714 94 714 118 V158 Q714 182 690 182 H170 Q146 182 146 158 V139 L128 132 L146 123 V118 Q146 94 174 94 Z" fill="#ffffff"/>
  </g>
  <text x="185" y="151" fill="#111827" font-family="Inter, 'Noto Sans SC', 'Microsoft YaHei', sans-serif" font-size="32" font-weight="500">@所有人 不要买西班牙冠军</text>
</svg>
